Coordinates
version=1
nRows=54
nColumns=12
inDegrees=yes

Units are S.I. units (second, meters, Newtons, ...)
Angles are in degrees

endheader
time	SC_y	SC_z	SC_x	AC_y	AC_z	AC_x	GH_y	GH_z	GH_yy	EL_x	PS_y
       0.0              -49.99          29.09          29.54          54.55         -3.027          14.19          -98.6          20.31         -77.05          43.19          136.6
   0.01169              -49.99          29.08          29.55          54.55         -3.027          14.19         -98.57          20.31         -77.05           43.2          136.6
   0.02338              -49.99          29.08          29.55          54.55         -3.027          14.19         -98.55          20.31         -77.05          43.21          136.6
   0.03506              -49.99          29.07          29.56          54.55         -3.027          14.19         -98.52          20.31         -77.04          43.23          136.6
   0.04675              -49.99          29.07          29.56          54.55         -3.026          14.19         -98.49          20.32         -77.04          43.25          136.6
   0.05844              -49.99          29.06          29.57          54.55         -3.026          14.19         -98.45          20.32         -77.04          43.26          136.6
   0.07013               -50.0          29.06          29.57          54.55         -3.026          14.19         -98.42          20.32         -77.04          43.28          136.6
   0.08181               -50.0          29.05          29.58          54.55         -3.026          14.18         -98.38          20.32         -77.04           43.3          136.5
    0.0935               -50.0          29.04          29.59          54.55         -3.025          14.18         -98.34          20.33         -77.04          43.32          136.5
    0.1052               -50.0          29.03           29.6          54.55         -3.025          14.18          -98.3          20.33         -77.04          43.34          136.5
    0.1169              -50.01          29.03          29.61          54.55         -3.025          14.18         -98.25          20.33         -77.03          43.37          136.5
    0.1286              -50.01          29.02          29.62          54.55         -3.024          14.18          -98.2          20.34         -77.03           43.4          136.5
    0.1403              -50.01          29.01          29.63          54.55         -3.024          14.17         -98.15          20.34         -77.03          43.42          136.4
    0.1519              -50.01           29.0          29.64          54.55         -3.023          14.17         -98.09          20.34         -77.03          43.45          136.4
    0.1636              -50.02          28.99          29.65          54.55         -3.023          14.17         -98.02          20.35         -77.03          43.49          136.4
    0.1753              -50.02          28.97          29.66          54.55         -3.023          14.17         -97.96          20.35         -77.02          43.52          136.3
     0.187              -50.03          28.96          29.68          54.55         -3.022          14.16         -97.88          20.36         -77.02          43.56          136.3
    0.1987              -50.03          28.95          29.69          54.55         -3.021          14.16          -97.8          20.36         -77.02          43.61          136.3
    0.2104              -50.04          28.93          29.71          54.55         -3.021          14.16         -97.71          20.37         -77.01          43.65          136.2
    0.2221              -50.04          28.91          29.72          54.55          -3.02          14.15         -97.61          20.37         -77.01           43.7          136.2
    0.2338              -50.05           28.9          29.74          54.55         -3.019          14.15         -97.51          20.38         -77.01          43.76          136.1
    0.2454              -50.05          28.88          29.77          54.55         -3.018          14.14         -97.39          20.39          -77.0          43.82          136.1
    0.2571              -50.06          28.85          29.79          54.55         -3.017          14.14         -97.26           20.4          -77.0          43.89          136.0
    0.2688              -50.07          28.83          29.82          54.54         -3.016          14.13         -97.12          20.41         -76.99          43.96          136.0
    0.2805              -50.08           28.8          29.85          54.54         -3.015          14.12         -96.96          20.42         -76.99          44.05          135.9
    0.2922              -50.09          28.77          29.88          54.54         -3.014          14.12         -96.78          20.43         -76.98          44.14          135.8
    0.3039               -50.1          28.73          29.92          54.54         -3.012          14.11         -96.58          20.44         -76.97          44.25          135.7
    0.3156              -50.11           28.7          29.96          54.54         -3.011           14.1         -96.36          20.46         -76.96          44.36          135.6
    0.3273              -50.12          28.65          30.01          54.54         -3.009          14.09          -96.1          20.47         -76.95           44.5          135.5
    0.3389              -50.14           28.6          30.06          54.54         -3.007          14.08         -95.82          20.49         -76.94          44.65          135.4
    0.3506              -50.16          28.54          30.12          54.54         -3.004          14.06         -95.49          20.51         -76.93          44.82          135.2
    0.3623              -50.18          28.48          30.19          54.53         -3.002          14.05         -95.11          20.54         -76.92          45.02          135.0
     0.374               -50.2           28.4          30.28          54.53         -2.998          14.03         -94.68          20.56          -76.9          45.25          134.8
    0.3857              -50.23          28.31          30.37          54.53         -2.995          14.01         -94.17           20.6         -76.88          45.51          134.6
    0.3974              -50.26          28.21          30.48          54.53          -2.99          13.98         -93.58          20.64         -76.86          45.82          134.3
    0.4091               -50.3          28.09          30.61          54.52         -2.985          13.95         -92.88          20.68         -76.83          46.19          134.0
    0.4208              -50.35          27.94          30.77          54.52         -2.979          13.92         -92.05          20.74          -76.8          46.63          133.6
    0.4324               -50.4          27.77          30.95          54.51         -2.972          13.87         -91.06           20.8         -76.76          47.15          133.2
    0.4441              -50.47          27.56          31.18          54.51         -2.963          13.82         -89.86          20.88         -76.72          47.78          132.6
    0.4558              -50.55           27.3          31.45           54.5         -2.952          13.76         -88.39          20.97         -76.66          48.55          131.9
    0.4675              -50.65          26.99          31.79          54.49         -2.939          13.68         -86.58          21.09         -76.59           49.5          131.1
    0.4792              -50.77          26.59          32.21          54.48         -2.922          13.59         -84.32          21.24         -76.51          50.69          130.1
    0.4909              -50.93           26.1          32.75          54.46         -2.901          13.47         -81.48          21.42          -76.4          52.19          128.8
    0.5026              -51.13          25.46          33.42          54.45         -2.874          13.32         -77.86          21.66         -76.26          54.09          127.1
    0.5143              -51.38          24.66          34.29          54.42          -2.84          13.12         -73.23          21.96         -76.09          56.52          124.9
    0.5259              -51.71          23.62           35.4          54.39         -2.796          12.87         -67.29          22.35         -75.86          59.65          122.2
    0.5376              -52.13          22.29          36.82          54.35          -2.74          12.55          -59.7          22.84         -75.57          63.64          118.7
    0.5493              -52.65          20.63          38.61           54.3          -2.67          12.14         -50.15          23.46         -75.21          68.65          114.3
     0.561              -53.29           18.6          40.79          54.24         -2.584          11.65         -38.52          24.22         -74.77          74.77          109.0
    0.5727              -54.03          16.24          43.31          54.17         -2.485          11.08         -25.04           25.1         -74.26          81.85          102.7
    0.5844              -54.84          13.69          46.04           54.1         -2.377          10.47         -10.45          26.05          -73.7          89.52          96.02
    0.5961              -55.64          11.14          48.78          54.02          -2.27          9.849          4.147           27.0         -73.15           97.2          89.29
    0.6078              -56.38          8.789           51.3          53.95          -2.17          9.279          17.63          27.88         -72.64          104.3          83.08
    0.6194              -57.02          6.758          53.48          53.89         -2.084          8.787          29.26          28.64          -72.2          110.4          77.72
